<mxfile host="app.diagrams.net" modified="2023-11-30T04:01:50.524Z" agent="Mozilla/5.0 (Windows NT 10.0; Win64; x64) AppleWebKit/537.36 (KHTML, like Gecko) Chrome/119.0.0.0 Safari/537.36 Edg/119.0.0.0" etag="Bk6CdjZ4z5MXtXAohTLw" version="22.1.4" type="device">
  <diagram name="Page-1" id="tIN58Bv6TqIAjgRD6bDU">
    <mxGraphModel dx="1410" dy="728" grid="1" gridSize="10" guides="1" tooltips="1" connect="1" arrows="1" fold="1" page="1" pageScale="1" pageWidth="1400" pageHeight="850" math="0" shadow="0">
      <root>
        <mxCell id="0" />
        <mxCell id="1" parent="0" />
        <mxCell id="s_hJve1FTU3vcBbmEYW--4" value=":sistem" style="shape=umlLifeline;perimeter=lifelinePerimeter;whiteSpace=wrap;html=1;container=1;dropTarget=0;collapsible=0;recursiveResize=0;outlineConnect=0;portConstraint=eastwest;newEdgeStyle={&quot;curved&quot;:0,&quot;rounded&quot;:0};" vertex="1" parent="1">
          <mxGeometry x="360" y="60" width="100" height="390" as="geometry" />
        </mxCell>
        <mxCell id="s_hJve1FTU3vcBbmEYW--17" value="" style="html=1;points=[[0,0,0,0,5],[0,1,0,0,-5],[1,0,0,0,5],[1,1,0,0,-5]];perimeter=orthogonalPerimeter;outlineConnect=0;targetShapes=umlLifeline;portConstraint=eastwest;newEdgeStyle={&quot;curved&quot;:0,&quot;rounded&quot;:0};" vertex="1" parent="s_hJve1FTU3vcBbmEYW--4">
          <mxGeometry x="45" y="76" width="10" height="24" as="geometry" />
        </mxCell>
        <mxCell id="s_hJve1FTU3vcBbmEYW--18" value="" style="html=1;points=[[0,0,0,0,5],[0,1,0,0,-5],[1,0,0,0,5],[1,1,0,0,-5]];perimeter=orthogonalPerimeter;outlineConnect=0;targetShapes=umlLifeline;portConstraint=eastwest;newEdgeStyle={&quot;curved&quot;:0,&quot;rounded&quot;:0};" vertex="1" parent="s_hJve1FTU3vcBbmEYW--4">
          <mxGeometry x="45" y="130" width="10" height="30" as="geometry" />
        </mxCell>
        <mxCell id="s_hJve1FTU3vcBbmEYW--5" value=":mesin APM" style="shape=umlLifeline;perimeter=lifelinePerimeter;whiteSpace=wrap;html=1;container=1;dropTarget=0;collapsible=0;recursiveResize=0;outlineConnect=0;portConstraint=eastwest;newEdgeStyle={&quot;curved&quot;:0,&quot;rounded&quot;:0};" vertex="1" parent="1">
          <mxGeometry x="540" y="60" width="100" height="390" as="geometry" />
        </mxCell>
        <mxCell id="s_hJve1FTU3vcBbmEYW--27" value="" style="html=1;points=[[0,0,0,0,5],[0,1,0,0,-5],[1,0,0,0,5],[1,1,0,0,-5]];perimeter=orthogonalPerimeter;outlineConnect=0;targetShapes=umlLifeline;portConstraint=eastwest;newEdgeStyle={&quot;curved&quot;:0,&quot;rounded&quot;:0};" vertex="1" parent="s_hJve1FTU3vcBbmEYW--5">
          <mxGeometry x="45" y="150" width="10" height="90" as="geometry" />
        </mxCell>
        <mxCell id="s_hJve1FTU3vcBbmEYW--9" value="Actor" style="shape=umlActor;verticalLabelPosition=bottom;verticalAlign=top;html=1;" vertex="1" parent="1">
          <mxGeometry x="80" y="130" width="30" height="60" as="geometry" />
        </mxCell>
        <mxCell id="s_hJve1FTU3vcBbmEYW--11" value="" style="shape=umlLifeline;perimeter=lifelinePerimeter;whiteSpace=wrap;html=1;container=1;dropTarget=0;collapsible=0;recursiveResize=0;outlineConnect=0;portConstraint=eastwest;newEdgeStyle={&quot;curved&quot;:0,&quot;rounded&quot;:0};participant=umlActor;" vertex="1" parent="1">
          <mxGeometry x="210" y="60" width="20" height="390" as="geometry" />
        </mxCell>
        <mxCell id="s_hJve1FTU3vcBbmEYW--12" value="" style="html=1;points=[[0,0,0,0,5],[0,1,0,0,-5],[1,0,0,0,5],[1,1,0,0,-5]];perimeter=orthogonalPerimeter;outlineConnect=0;targetShapes=umlLifeline;portConstraint=eastwest;newEdgeStyle={&quot;curved&quot;:0,&quot;rounded&quot;:0};" vertex="1" parent="s_hJve1FTU3vcBbmEYW--11">
          <mxGeometry x="5" y="76" width="10" height="84" as="geometry" />
        </mxCell>
        <mxCell id="s_hJve1FTU3vcBbmEYW--23" value="" style="html=1;points=[[0,0,0,0,5],[0,1,0,0,-5],[1,0,0,0,5],[1,1,0,0,-5]];perimeter=orthogonalPerimeter;outlineConnect=0;targetShapes=umlLifeline;portConstraint=eastwest;newEdgeStyle={&quot;curved&quot;:0,&quot;rounded&quot;:0};" vertex="1" parent="s_hJve1FTU3vcBbmEYW--11">
          <mxGeometry x="5" y="180" width="10" height="120" as="geometry" />
        </mxCell>
        <mxCell id="s_hJve1FTU3vcBbmEYW--14" value="" style="endArrow=classic;html=1;rounded=0;exitX=1.06;exitY=-0.001;exitDx=0;exitDy=0;exitPerimeter=0;" edge="1" parent="1" source="s_hJve1FTU3vcBbmEYW--12" target="s_hJve1FTU3vcBbmEYW--4">
          <mxGeometry relative="1" as="geometry">
            <mxPoint x="280" y="170" as="sourcePoint" />
            <mxPoint x="380" y="170" as="targetPoint" />
          </mxGeometry>
        </mxCell>
        <mxCell id="s_hJve1FTU3vcBbmEYW--15" value="Label" style="edgeLabel;resizable=0;html=1;align=center;verticalAlign=middle;" connectable="0" vertex="1" parent="s_hJve1FTU3vcBbmEYW--14">
          <mxGeometry relative="1" as="geometry" />
        </mxCell>
        <mxCell id="s_hJve1FTU3vcBbmEYW--16" value="input data" style="edgeLabel;html=1;align=center;verticalAlign=middle;resizable=0;points=[];" vertex="1" connectable="0" parent="s_hJve1FTU3vcBbmEYW--14">
          <mxGeometry x="0.0005" relative="1" as="geometry">
            <mxPoint as="offset" />
          </mxGeometry>
        </mxCell>
        <mxCell id="s_hJve1FTU3vcBbmEYW--19" value="" style="endArrow=classic;html=1;rounded=0;exitX=0;exitY=1;exitDx=0;exitDy=-5;exitPerimeter=0;" edge="1" parent="1" source="s_hJve1FTU3vcBbmEYW--18" target="s_hJve1FTU3vcBbmEYW--12">
          <mxGeometry relative="1" as="geometry">
            <mxPoint x="390" y="210" as="sourcePoint" />
            <mxPoint x="300" y="280" as="targetPoint" />
          </mxGeometry>
        </mxCell>
        <mxCell id="s_hJve1FTU3vcBbmEYW--20" value="Label" style="edgeLabel;resizable=0;html=1;align=center;verticalAlign=middle;" connectable="0" vertex="1" parent="s_hJve1FTU3vcBbmEYW--19">
          <mxGeometry relative="1" as="geometry" />
        </mxCell>
        <mxCell id="s_hJve1FTU3vcBbmEYW--21" value="bukti pendaftaran" style="edgeLabel;html=1;align=center;verticalAlign=middle;resizable=0;points=[];" vertex="1" connectable="0" parent="s_hJve1FTU3vcBbmEYW--19">
          <mxGeometry x="0.0244" relative="1" as="geometry">
            <mxPoint as="offset" />
          </mxGeometry>
        </mxCell>
        <mxCell id="s_hJve1FTU3vcBbmEYW--25" value="" style="endArrow=classic;html=1;rounded=0;exitX=1;exitY=0;exitDx=0;exitDy=5;exitPerimeter=0;" edge="1" parent="1" source="s_hJve1FTU3vcBbmEYW--23" target="s_hJve1FTU3vcBbmEYW--5">
          <mxGeometry relative="1" as="geometry">
            <mxPoint x="290" y="280" as="sourcePoint" />
            <mxPoint x="474.5" y="280" as="targetPoint" />
          </mxGeometry>
        </mxCell>
        <mxCell id="s_hJve1FTU3vcBbmEYW--26" value="pasien lama" style="edgeLabel;resizable=0;html=1;align=center;verticalAlign=middle;" connectable="0" vertex="1" parent="s_hJve1FTU3vcBbmEYW--25">
          <mxGeometry relative="1" as="geometry" />
        </mxCell>
        <mxCell id="s_hJve1FTU3vcBbmEYW--28" value="" style="endArrow=classic;html=1;rounded=0;exitX=1;exitY=1;exitDx=0;exitDy=-5;exitPerimeter=0;" edge="1" parent="1" source="s_hJve1FTU3vcBbmEYW--18" target="s_hJve1FTU3vcBbmEYW--27">
          <mxGeometry relative="1" as="geometry">
            <mxPoint x="450" y="230" as="sourcePoint" />
            <mxPoint x="530" y="250" as="targetPoint" />
          </mxGeometry>
        </mxCell>
        <mxCell id="s_hJve1FTU3vcBbmEYW--29" value="Label" style="edgeLabel;resizable=0;html=1;align=center;verticalAlign=middle;" connectable="0" vertex="1" parent="s_hJve1FTU3vcBbmEYW--28">
          <mxGeometry relative="1" as="geometry" />
        </mxCell>
        <mxCell id="s_hJve1FTU3vcBbmEYW--30" value="kirim data" style="edgeLabel;html=1;align=center;verticalAlign=middle;resizable=0;points=[];" vertex="1" connectable="0" parent="s_hJve1FTU3vcBbmEYW--28">
          <mxGeometry x="0.0025" y="-1" relative="1" as="geometry">
            <mxPoint as="offset" />
          </mxGeometry>
        </mxCell>
        <mxCell id="s_hJve1FTU3vcBbmEYW--31" value=":loket registrasi ulang" style="shape=umlLifeline;perimeter=lifelinePerimeter;whiteSpace=wrap;html=1;container=1;dropTarget=0;collapsible=0;recursiveResize=0;outlineConnect=0;portConstraint=eastwest;newEdgeStyle={&quot;curved&quot;:0,&quot;rounded&quot;:0};" vertex="1" parent="1">
          <mxGeometry x="720" y="60" width="100" height="390" as="geometry" />
        </mxCell>
        <mxCell id="s_hJve1FTU3vcBbmEYW--32" value="" style="html=1;points=[[0,0,0,0,5],[0,1,0,0,-5],[1,0,0,0,5],[1,1,0,0,-5]];perimeter=orthogonalPerimeter;outlineConnect=0;targetShapes=umlLifeline;portConstraint=eastwest;newEdgeStyle={&quot;curved&quot;:0,&quot;rounded&quot;:0};" vertex="1" parent="s_hJve1FTU3vcBbmEYW--31">
          <mxGeometry x="45" y="130" width="10" height="170" as="geometry" />
        </mxCell>
        <mxCell id="s_hJve1FTU3vcBbmEYW--33" value="ki" style="endArrow=classic;html=1;rounded=0;exitX=1;exitY=0;exitDx=0;exitDy=5;exitPerimeter=0;entryX=0;entryY=0;entryDx=0;entryDy=5;entryPerimeter=0;" edge="1" parent="1" source="s_hJve1FTU3vcBbmEYW--18" target="s_hJve1FTU3vcBbmEYW--32">
          <mxGeometry relative="1" as="geometry">
            <mxPoint x="560" y="210" as="sourcePoint" />
            <mxPoint x="760" y="195" as="targetPoint" />
          </mxGeometry>
        </mxCell>
        <mxCell id="s_hJve1FTU3vcBbmEYW--34" value="kirim data" style="edgeLabel;resizable=0;html=1;align=center;verticalAlign=middle;" connectable="0" vertex="1" parent="s_hJve1FTU3vcBbmEYW--33">
          <mxGeometry relative="1" as="geometry" />
        </mxCell>
        <mxCell id="s_hJve1FTU3vcBbmEYW--36" value="" style="endArrow=classic;html=1;rounded=0;exitX=0;exitY=1;exitDx=0;exitDy=-5;exitPerimeter=0;" edge="1" parent="1" source="s_hJve1FTU3vcBbmEYW--27" target="s_hJve1FTU3vcBbmEYW--11">
          <mxGeometry relative="1" as="geometry">
            <mxPoint x="520" y="300" as="sourcePoint" />
            <mxPoint x="320" y="340" as="targetPoint" />
          </mxGeometry>
        </mxCell>
        <mxCell id="s_hJve1FTU3vcBbmEYW--37" value="no antrian" style="edgeLabel;resizable=0;html=1;align=center;verticalAlign=middle;" connectable="0" vertex="1" parent="s_hJve1FTU3vcBbmEYW--36">
          <mxGeometry relative="1" as="geometry" />
        </mxCell>
        <mxCell id="s_hJve1FTU3vcBbmEYW--39" value="" style="endArrow=classic;html=1;rounded=0;exitX=0;exitY=1;exitDx=0;exitDy=-5;exitPerimeter=0;" edge="1" parent="1" source="s_hJve1FTU3vcBbmEYW--32" target="s_hJve1FTU3vcBbmEYW--23">
          <mxGeometry relative="1" as="geometry">
            <mxPoint x="510" y="400" as="sourcePoint" />
            <mxPoint x="610" y="400" as="targetPoint" />
          </mxGeometry>
        </mxCell>
        <mxCell id="s_hJve1FTU3vcBbmEYW--40" value="no antrian" style="edgeLabel;resizable=0;html=1;align=center;verticalAlign=middle;" connectable="0" vertex="1" parent="s_hJve1FTU3vcBbmEYW--39">
          <mxGeometry relative="1" as="geometry" />
        </mxCell>
      </root>
    </mxGraphModel>
  </diagram>
</mxfile>
